# xmcd CD database file
#
# Track frame offsets:
#	150
#	31207
#	49662
#	71726
#	117268
#	159351
#	174304
#	198883
#	230813
#	254290
#	302967
#
# Disc length: 4344 seconds
#
# Revision: 0
# Processed by: cddbd v1.5.1PL0 Copyright (c) Steve Scherf et al.
# Submitted via: CDex 1.51
#
DISCID=9010f60b
DTITLE=diverse - voyage cd1
DYEAR=1996
DGENRE=New Age
TTITLE0=sun projekt - deeper and deeper
TTITLE1=transistor /memory child
TTITLE2=tantralovers - fell the chakra love
TTITLE3=klangstrahler - thinks can change
TTITLE4=m-sphere - serum x
TTITLE5=g-trans point - in search of buddah
TTITLE6=earth projekt - journey through nature
TTITLE7=doof - sknuked on planet dub
TTITLE8=marcel thebeach - strophoria
TTITLE9=mortal - luxor
TTITLE10=children of dub - spook
EXTD=YEAR: 1996
EXTT0=
EXTT1=
EXTT2=
EXTT3=
EXTT4=
EXTT5=
EXTT6=
EXTT7=
EXTT8=
EXTT9=
EXTT10=
PLAYORDER=
